<svg width="138" height="41" viewBox="0 0 138 41" fill="none" xmlns="http://www.w3.org/2000/svg">
<path d="M5.29775 23.3296H1.75V23.7551H5.29775V23.3296Z" fill="#FF4C13"/>
<path d="M5.29775 25.9727H1.75V26.3982H5.29775V25.9727Z" fill="#FF4C13"/>
<path d="M5.29775 28.6162H1.75V29.0417H5.29775V28.6162Z" fill="#FF4C13"/>
<path d="M5.29528 31.2605H3.50781V31.686H5.29528V31.2605Z" fill="#FF4C13"/>
<path d="M5.29775 33.9041H1.75V34.3296H5.29775V33.9041Z" fill="#FF4C13"/>
<path d="M5.29775 36.5515H1.75V36.977H5.29775V36.5515Z" fill="#FF4C13"/>
<path d="M5.29528 39.1951H3.50781V39.6206H5.29528V39.1951Z" fill="#FF4C13"/>
<path d="M10.5672 11.6433H9.72266V27.3615H10.5672V11.6433Z" fill="#FF4C13"/>
<path d="M13.3211 11.6436H12.4766V27.3618H13.3211V11.6436Z" fill="#FF4C13"/>
<path d="M39.997 23.265C39.849 14.6672 34.573 6.17009 22.7389 6.17009H11.9429V0.951904H11.0983V6.24102L9.17889 7.61125L6.18937 9.74559V20.4979L0 17.0014V40.9563H0.844555V18.4547L6.18937 21.474V40.9563H7.04752V20.9831L7.03392 20.9759V10.1857L9.17889 8.65424L11.5206 6.98255L16.0065 10.1857V27.9842C15.8825 27.9907 15.7594 28.0004 15.6386 28.0125C13.4736 28.2309 11.8741 29.3368 11.8741 30.7078H12.7186C12.7186 30.2588 13.0809 29.7994 13.7119 29.4472C14.2438 29.1506 14.9092 28.9515 15.6386 28.8693C15.8953 28.8394 16.1592 28.8241 16.4288 28.8241C17.462 28.8241 18.4274 29.0458 19.1464 29.4472C19.7774 29.7994 20.1389 30.2588 20.1389 30.7078V32.1804C19.3199 31.492 17.9763 31.0512 16.4288 31.0512C16.1584 31.0512 15.8945 31.0649 15.6386 31.0907C13.4736 31.3091 11.8741 32.4141 11.8741 33.786H12.7186C12.7186 33.337 13.0809 32.8776 13.7119 32.5254C14.2438 32.2279 14.9092 32.0297 15.6386 31.9467C15.8953 31.9168 16.1592 31.9023 16.4288 31.9023C17.462 31.9023 18.4274 32.1232 19.1464 32.5254C19.7774 32.8776 20.1389 33.337 20.1389 33.786V35.2578C19.8581 35.0216 19.5158 34.8153 19.1248 34.6452C18.3746 34.3196 17.4461 34.1294 16.4288 34.1294C16.1584 34.1294 15.8945 34.1431 15.6386 34.1688C13.4736 34.3873 11.8741 35.4923 11.8741 36.8642H12.7186C12.7186 36.4152 13.0809 35.9558 13.7119 35.6036C14.4309 35.2014 15.3955 34.9805 16.4288 34.9805C17.462 34.9805 18.4274 35.2014 19.1464 35.6036C19.7774 35.9558 20.1389 36.4152 20.1389 36.8642V38.336C19.3199 37.6476 17.9763 37.2067 16.4288 37.2067C13.8751 37.2067 11.8741 38.4085 11.8741 39.9424H12.7186C12.7186 39.4934 13.0809 39.034 13.7119 38.6818C14.4309 38.2796 15.3955 38.0587 16.4288 38.0587C17.462 38.0587 18.4274 38.2796 19.1464 38.6818C19.7774 39.034 20.1389 39.4934 20.1389 39.9424V40.9563H20.9834H22.7389C34.8201 40.9563 40.145 32.0611 39.997 23.265ZM22.7389 34.6452H20.9834V30.7078C20.9834 29.2602 19.1999 28.1084 16.851 27.9842V12.3813H22.7389C30.2343 12.3813 33.3901 17.7986 33.5381 23.215C33.6861 28.8805 30.579 34.6452 22.7389 34.6452Z" fill="#FF4C13"/>
<path d="M44.28 17.84H50.48V21.2H50.8C51.12 20.2667 51.7467 19.48 52.68 18.84C53.64 18.1733 54.88 17.84 56.4 17.84C56.8533 17.84 57.28 17.88 57.68 17.96L57.4 23.68C56.7867 23.4667 56.08 23.36 55.28 23.36C53.6 23.36 52.3733 23.7867 51.6 24.64C50.8533 25.4933 50.48 26.9067 50.48 28.88V39H44.28V17.84ZM61.2453 17.84H67.4453V39H61.2453V17.84ZM64.3253 14.32C63.3653 14.32 62.5653 14 61.9253 13.36C61.2853 12.6933 60.9653 11.8933 60.9653 10.96C60.9653 10 61.2853 9.2 61.9253 8.56C62.5653 7.89333 63.3653 7.56 64.3253 7.56C65.2853 7.56 66.0853 7.89333 66.7253 8.56C67.392 9.2 67.7253 10 67.7253 10.96C67.7253 11.8933 67.392 12.6933 66.7253 13.36C66.0853 14 65.2853 14.32 64.3253 14.32ZM79.7947 39.12C77.688 39.12 76.128 38.8 75.1147 38.16C74.128 37.52 73.5147 36.7467 73.2747 35.84C73.0347 34.9333 72.9147 33.7733 72.9147 32.36L72.9547 9H79.1547V31.08C79.1547 32.0133 79.1947 32.72 79.2747 33.2C79.3814 33.6533 79.648 34.0133 80.0747 34.28C80.528 34.5467 81.2347 34.68 82.1947 34.68C82.7014 34.68 83.048 34.6533 83.2347 34.6V38.92C82.0347 39.0533 80.888 39.12 79.7947 39.12ZM93.8181 39.12C91.7115 39.12 90.1515 38.8 89.1381 38.16C88.1515 37.52 87.5381 36.7467 87.2981 35.84C87.0581 34.9333 86.9381 33.7733 86.9381 32.36L86.9781 9H93.1781V31.08C93.1781 32.0133 93.2181 32.72 93.2981 33.2C93.4048 33.6533 93.6715 34.0133 94.0981 34.28C94.5515 34.5467 95.2581 34.68 96.2181 34.68C96.7248 34.68 97.0715 34.6533 97.2581 34.6V38.92C96.0581 39.0533 94.9115 39.12 93.8181 39.12ZM110.242 39.36C108.002 39.36 106.108 38.8533 104.562 37.84C103.042 36.8 101.908 35.4533 101.162 33.8C100.442 32.12 100.082 30.32 100.082 28.4C100.082 26.48 100.442 24.6933 101.162 23.04C101.908 21.36 103.042 20 104.562 18.96C106.108 17.92 108.028 17.4 110.322 17.4C113.308 17.4 115.682 18.3467 117.442 20.24C119.202 22.1067 120.082 24.8267 120.082 28.4V30.12H106.082V30.44C106.082 31.5333 106.455 32.48 107.202 33.28C107.975 34.0533 108.948 34.44 110.122 34.44C111.028 34.44 111.802 34.24 112.442 33.84C113.082 33.4133 113.535 32.8533 113.802 32.16H119.922C119.388 34.2667 118.282 36 116.602 37.36C114.948 38.6933 112.828 39.36 110.242 39.36ZM114.122 26.12C114.095 24.68 113.722 23.6133 113.002 22.92C112.308 22.2267 111.375 21.88 110.202 21.88C109.002 21.88 108.042 22.2533 107.322 23C106.628 23.7467 106.268 24.7867 106.242 26.12H114.122ZM123.85 17.84H130.05V21.2H130.37C130.69 20.2667 131.317 19.48 132.25 18.84C133.21 18.1733 134.45 17.84 135.97 17.84C136.424 17.84 136.85 17.88 137.25 17.96L136.97 23.68C136.357 23.4667 135.65 23.36 134.85 23.36C133.17 23.36 131.944 23.7867 131.17 24.64C130.424 25.4933 130.05 26.9067 130.05 28.88V39H123.85V17.84Z" fill="white"/>
</svg>
