<svg width="186" height="61" viewBox="0 0 186 61" fill="none" xmlns="http://www.w3.org/2000/svg">
<path d="M7.94858 33.5766H2.62695V34.2149H7.94858V33.5766Z" fill="#FF4C13"/>
<path d="M7.94858 37.542H2.62695V38.1803H7.94858V37.542Z" fill="#FF4C13"/>
<path d="M7.94858 41.5078H2.62695V42.1461H7.94858V41.5078Z" fill="#FF4C13"/>
<path d="M7.94683 45.4747H5.26562V46.113H7.94683V45.4747Z" fill="#FF4C13"/>
<path d="M7.94858 49.4402H2.62695V50.0785H7.94858V49.4402Z" fill="#FF4C13"/>
<path d="M7.94858 53.4058H2.62695V54.0441H7.94858V53.4058Z" fill="#FF4C13"/>
<path d="M7.94683 57.3714H5.26562V58.0097H7.94683V57.3714Z" fill="#FF4C13"/>
<path d="M15.8488 16.0442H14.582V39.6216H15.8488V16.0442Z" fill="#FF4C13"/>
<path d="M19.9797 16.0442H18.7129V39.6216H19.9797V16.0442Z" fill="#FF4C13"/>
<path d="M59.9955 33.4762C59.7736 20.5794 51.8595 7.83383 34.1083 7.83383H17.9143V0.00656128H16.6475V7.94023L13.7683 9.99558L9.28406 13.1971V29.3256L0 24.0808V60.0132H1.26683V26.2607L9.28406 30.7897V60.0132H10.5713V30.0534L10.5509 30.0425V13.8572L13.7683 11.5601L17.2809 9.05253L24.0097 13.8572V40.5551C23.8238 40.5647 23.639 40.5793 23.4579 40.5974C20.2104 40.925 17.8111 42.5838 17.8111 44.6404H19.078C19.078 43.967 19.6214 43.2778 20.5679 42.7495C21.3657 42.3045 22.3638 42.0059 23.4579 41.8826C23.843 41.8379 24.2389 41.8149 24.6431 41.8149C26.1931 41.8149 27.641 42.1474 28.7195 42.7495C29.666 43.2778 30.2083 43.967 30.2083 44.6404V46.8493C28.9799 45.8168 26.9644 45.1554 24.6431 45.1554C24.2377 45.1554 23.8418 45.176 23.4579 45.2147C20.2104 45.5423 17.8111 47.1999 17.8111 49.2577H19.078C19.078 48.5843 19.6214 47.8951 20.5679 47.3668C21.3657 46.9206 22.3638 46.6232 23.4579 46.4987C23.843 46.4539 24.2389 46.4322 24.6431 46.4322C26.1931 46.4322 27.641 46.7634 28.7195 47.3668C29.666 47.8951 30.2083 48.5843 30.2083 49.2577V51.4654C29.7872 51.1111 29.2738 50.8016 28.6871 50.5465C27.5619 50.0581 26.1691 49.7727 24.6431 49.7727C24.2377 49.7727 23.8418 49.7933 23.4579 49.832C20.2104 50.1596 17.8111 51.8172 17.8111 53.875H19.078C19.078 53.2016 19.6214 52.5124 20.5679 51.9841C21.6464 51.3808 23.0932 51.0495 24.6431 51.0495C26.1931 51.0495 27.641 51.3808 28.7195 51.9841C29.666 52.5124 30.2083 53.2016 30.2083 53.875V56.0827C28.9799 55.0502 26.9644 54.3888 24.6431 54.3888C20.8127 54.3888 17.8111 56.1915 17.8111 58.4923H19.078C19.078 57.8188 19.6214 57.1297 20.5679 56.6013C21.6464 55.998 23.0932 55.6668 24.6431 55.6668C26.1931 55.6668 27.641 55.998 28.7195 56.6013C29.666 57.1297 30.2083 57.8188 30.2083 58.4923V60.0132H31.4751H34.1083C52.2302 60.0132 60.2174 46.6704 59.9955 33.4762ZM34.1083 50.5465H31.4751V44.6404C31.4751 42.469 28.7999 40.7413 25.2765 40.5551V17.1506H34.1083C45.3514 17.1506 50.0852 25.2765 50.3071 33.4012C50.5291 41.8995 45.8685 50.5465 34.1083 50.5465Z" fill="#FF4C13"/>
<path d="M63.964 32.492H72.024V36.86H72.44C72.856 35.6467 73.6707 34.624 74.884 33.792C76.132 32.9253 77.744 32.492 79.72 32.492C80.3093 32.492 80.864 32.544 81.384 32.648L81.02 40.084C80.2227 39.8067 79.304 39.668 78.264 39.668C76.08 39.668 74.4853 40.2227 73.48 41.332C72.5093 42.4413 72.024 44.2787 72.024 46.844V60H63.964V32.492ZM86.0189 32.492H94.0789V60H86.0189V32.492ZM90.0229 27.916C88.7749 27.916 87.7349 27.5 86.9029 26.668C86.0709 25.8013 85.6549 24.7613 85.6549 23.548C85.6549 22.3 86.0709 21.26 86.9029 20.428C87.7349 19.5613 88.7749 19.128 90.0229 19.128C91.2709 19.128 92.3109 19.5613 93.1429 20.428C94.0096 21.26 94.4429 22.3 94.4429 23.548C94.4429 24.7613 94.0096 25.8013 93.1429 26.668C92.3109 27.5 91.2709 27.916 90.0229 27.916ZM110.133 60.156C107.394 60.156 105.366 59.74 104.049 58.908C102.766 58.076 101.969 57.0707 101.657 55.892C101.345 54.7133 101.189 53.2053 101.189 51.368L101.241 21H109.301V49.704C109.301 50.9173 109.353 51.836 109.457 52.46C109.596 53.0493 109.942 53.5173 110.497 53.864C111.086 54.2107 112.005 54.384 113.253 54.384C113.912 54.384 114.362 54.3493 114.605 54.28V59.896C113.045 60.0693 111.554 60.156 110.133 60.156ZM128.364 60.156C125.625 60.156 123.597 59.74 122.28 58.908C120.997 58.076 120.2 57.0707 119.888 55.892C119.576 54.7133 119.42 53.2053 119.42 51.368L119.472 21H127.532V49.704C127.532 50.9173 127.584 51.836 127.688 52.46C127.826 53.0493 128.173 53.5173 128.728 53.864C129.317 54.2107 130.236 54.384 131.484 54.384C132.142 54.384 132.593 54.3493 132.836 54.28V59.896C131.276 60.0693 129.785 60.156 128.364 60.156ZM149.714 60.468C146.802 60.468 144.341 59.8093 142.33 58.492C140.354 57.14 138.881 55.3893 137.91 53.24C136.974 51.056 136.506 48.716 136.506 46.22C136.506 43.724 136.974 41.4013 137.91 39.252C138.881 37.068 140.354 35.3 142.33 33.948C144.341 32.596 146.837 31.92 149.818 31.92C153.701 31.92 156.786 33.1507 159.074 35.612C161.362 38.0387 162.506 41.5747 162.506 46.22V48.456H144.306V48.872C144.306 50.2933 144.791 51.524 145.762 52.564C146.767 53.5693 148.033 54.072 149.558 54.072C150.737 54.072 151.742 53.812 152.574 53.292C153.406 52.7373 153.995 52.0093 154.342 51.108H162.298C161.605 53.8467 160.166 56.1 157.982 57.868C155.833 59.6013 153.077 60.468 149.714 60.468ZM154.758 43.256C154.723 41.384 154.238 39.9973 153.302 39.096C152.401 38.1947 151.187 37.744 149.662 37.744C148.102 37.744 146.854 38.2293 145.918 39.2C145.017 40.1707 144.549 41.5227 144.514 43.256H154.758ZM167.405 32.492H175.465V36.86H175.881C176.297 35.6467 177.112 34.624 178.325 33.792C179.573 32.9253 181.185 32.492 183.161 32.492C183.751 32.492 184.305 32.544 184.825 32.648L184.461 40.084C183.664 39.8067 182.745 39.668 181.705 39.668C179.521 39.668 177.927 40.2227 176.921 41.332C175.951 42.4413 175.465 44.2787 175.465 46.844V60H167.405V32.492Z" fill="#000F57"/>
</svg>
